<svg width="374" height="446" viewBox="0 0 374 446" fill="none" xmlns="http://www.w3.org/2000/svg">
<path d="M185.726 100.783C189.63 99.2598 192.518 98.732 195.31 101.834C197.567 104.342 193.374 106.733 192.356 108.464C191.316 110.232 187.087 112.008 187.17 112.008C191.415 112.008 195.66 112.008 199.905 112.008" stroke="black" stroke-width="3" stroke-linecap="round"/>
<path d="M203.45 101.965C205.875 100.555 212.527 96.2124 213.526 101.702C214.141 105.086 214.3 106.754 211.425 109.054C209.825 110.334 204.355 112.599 206.403 112.599C209.898 112.599 213.394 111.417 217.037 111.417" stroke="black" stroke-width="3" stroke-linecap="round"/>
<path d="M181 119.098C189.555 119.098 198.111 119.098 206.666 119.098C211.722 119.098 218.186 118.693 222.945 120.279" stroke="black" stroke-width="3" stroke-linecap="round"/>
<path d="M194.588 127.368C196.752 127.368 209.092 125.996 209.915 128.878C210.988 132.634 199.905 136.252 199.905 140.956" stroke="black" stroke-width="3" stroke-linecap="round"/>
<path d="M233.579 119.098L245 119" stroke="black" stroke-width="3" stroke-linecap="round"/>
<path d="M233.579 125.596H244.804" stroke="black" stroke-width="3" stroke-linecap="round"/>
<path d="M255.208 108.787C257.306 99.2306 275.628 98.4677 273.489 110.231C272.585 115.206 265.346 116.67 262.921 120.307C261.059 123.1 262.888 127.106 262.888 130.055" stroke="black" stroke-width="3" stroke-linecap="round"/>
<path d="M263 139C265.881 142.687 266.081 139.591 263.591 139.591" stroke="black" stroke-width="3" stroke-linecap="round"/>
<path d="M177 34.5549C179.846 34.5549 182.677 34.5027 185.271 35.8678C186.644 36.5905 186.852 37.4594 187.962 36.0319C191.331 31.7006 195.491 31.5281 200.894 32.4544C205.459 33.237 210.235 35.1256 214.678 36.4585C216.652 37.0507 216.347 36.5728 217.829 35.4083C223.153 31.2252 227.674 35.6774 233.058 37.7714C234.473 38.3214 235.231 38.1347 236.373 37.2462C237.376 36.4663 239.848 36.8851 241.066 36.918C244.332 37.0063 247.363 38.0996 250.716 38.0996C253.348 38.0996 255.757 36.918 258.232 36.918C261.087 36.918 263.943 36.918 266.798 36.918C270.28 36.918 273.522 38.0996 276.841 38.0996" stroke="black" stroke-width="3" stroke-linecap="round"/>
<path d="M177 59.5516C179.804 59.5516 182.233 59.6655 184.975 60.1424C186.619 60.4282 190.001 61.6041 191.507 60.3722C193.143 59.0337 195.31 56.093 197.546 56.007C200.541 55.8918 203.611 57.2324 206.539 57.7793C208.639 58.1717 215.269 59.7076 217.173 58.0419C218.495 56.8846 221.295 56.8217 223.015 56.6306C226.475 56.2461 229.178 58.3701 232.566 58.3701C234.78 58.3701 236.562 57.7956 238.703 57.3198C241.467 56.7057 243.93 57.7088 246.58 58.2388C250.352 58.9931 254.653 58.4479 258.494 58.928C262.133 59.3829 266.108 58.9609 269.752 58.9609C272.981 58.9609 279.93 57.6723 282.749 59.5516" stroke="black" stroke-width="3" stroke-linecap="round"/>
<path d="M177 83.3932C180.307 83.4719 183.383 84.4029 186.715 83.7214C190.853 82.8749 194.241 80.4393 198.531 80.4393C202.047 80.4393 205.28 82.2116 208.902 82.2116C212.272 82.2116 215.641 82.2116 219.011 82.2116C222.382 82.2116 224.754 80.4229 227.774 79.2906C229.604 78.6044 230.56 79.2746 232.533 79.8485C236.851 81.1047 241.938 80.4393 246.449 80.4393C251.56 80.4393 256.548 81.3612 261.481 81.6208C268.863 82.0093 276.5 83.9839 283.931 83.9839" stroke="black" stroke-width="3" stroke-linecap="round"/>
<path d="M62.5 106C62.5 96.8873 69.8873 89.5 79 89.5H107C116.113 89.5 123.5 96.8873 123.5 106V161.5H62.5V106Z" fill="white" stroke="black" stroke-width="7"/>
<circle cx="92.5" cy="50.5" r="24" fill="white" stroke="black" stroke-width="7"/>
<rect x="81.5" y="182.5" width="7" height="7" rx="1.5" fill="black" stroke="black" stroke-width="3"/>
<path d="M83.7277 186.378C83.4975 186.179 83.4975 185.821 83.7277 185.622L93.6727 177.009C93.9965 176.729 94.5 176.959 94.5 177.387V194.613C94.5 195.041 93.9965 195.271 93.6727 194.991L83.7277 186.378L82.7457 187.512L83.7277 186.378Z" fill="black" stroke="black" stroke-width="3"/>
<path d="M97 182C97 181.448 97.4521 180.99 97.9934 181.1C98.9494 181.293 99.8355 181.764 100.536 182.464C101.473 183.402 102 184.674 102 186C102 187.326 101.473 188.598 100.536 189.536C99.8355 190.236 98.9494 190.707 97.9934 190.9C97.4521 191.01 97 190.552 97 190L97 186V182Z" fill="black"/>
<rect x="56" y="173" width="3" height="25" rx="1.5" fill="black"/>
<path d="M65 174.5C65 173.672 65.6716 173 66.5 173V173C67.3284 173 68 173.672 68 174.5V196.5C68 197.328 67.3284 198 66.5 198V198C65.6716 198 65 197.328 65 196.5V174.5Z" fill="black"/>
<path d="M39.75 184.701C40.75 185.278 40.75 186.722 39.75 187.299L26.25 195.093C25.25 195.671 24 194.949 24 193.794L24 178.206C24 177.051 25.25 176.329 26.25 176.907L39.75 184.701Z" fill="black" stroke="black" stroke-width="3"/>
<rect x="7" y="158" width="320" height="7" fill="black"/>
<rect x="3.5" y="3.5" width="327" height="207" rx="23.5" stroke="black" stroke-width="7"/>
<rect x="163.5" y="152.5" width="207" height="289.828" fill="white" stroke="black" stroke-width="7"/>
<line x1="202" y1="177.5" x2="352" y2="177.5" stroke="black" stroke-width="3"/>
<line x1="182" y1="197.5" x2="352" y2="197.5" stroke="black" stroke-width="3"/>
<line x1="182" y1="217.5" x2="352" y2="217.5" stroke="black" stroke-width="3"/>
<line x1="182" y1="237.5" x2="352" y2="237.5" stroke="black" stroke-width="3"/>
<line x1="201" y1="263.5" x2="351" y2="263.5" stroke="black" stroke-width="3"/>
<line x1="181" y1="283.5" x2="351" y2="283.5" stroke="black" stroke-width="3"/>
<line x1="181" y1="343.5" x2="351" y2="343.5" stroke="black" stroke-width="3"/>
<line x1="181" y1="303.5" x2="351" y2="303.5" stroke="black" stroke-width="3"/>
<line x1="181" y1="323.5" x2="351" y2="323.5" stroke="black" stroke-width="3"/>
<path d="M272.834 403.545C277.61 407.241 282.627 411.407 286.74 415.891C289.162 418.532 289.504 408.968 289.991 407.647C294.874 394.39 304.291 383.79 313.193 373.101C313.988 372.147 318.487 366.856 317.832 367.013" stroke="#416FE3" stroke-width="7" stroke-linecap="round"/>
<path d="M56.4337 251.943L52.9383 252.123L52.9383 252.123L56.4337 251.943ZM120.643 340.229L121.891 336.959L121.891 336.959L120.643 340.229ZM126.712 345.195C128.476 344.405 129.267 342.335 128.477 340.57L115.61 311.818C114.82 310.054 112.75 309.264 110.986 310.053C109.221 310.843 108.431 312.913 109.221 314.677L120.658 340.235L95.1003 351.672C93.336 352.462 92.5457 354.532 93.3353 356.297C94.1249 358.061 96.1953 358.851 97.9597 358.062L126.712 345.195ZM52.7869 249.18L52.9383 252.123L59.9291 251.763L59.7776 248.82L52.7869 249.18ZM119.395 343.499L124.034 345.27L126.53 338.73L121.891 336.959L119.395 343.499ZM52.9383 252.123C55.045 293.053 81.1048 328.885 119.395 343.499L121.891 336.959C86.1905 323.333 61.8933 289.925 59.9291 251.763L52.9383 252.123Z" fill="#416FE3"/>
</svg>
